<?xml version="1.0" encoding="UTF-8"?>
<svg xmlns="http://www.w3.org/2000/svg" 
     width="727" height="255" 
     viewBox="156 337 727 255">
  <defs>
    <!-- Chrome gradient for darker overlay elements -->
    <linearGradient id="chromeDark" gradientUnits="objectBoundingBox"
        x1="0" y1="0" x2="0.4" y2="1">
      <stop offset="0%" stop-color="#606060"/>
      <stop offset="20%" stop-color="#2a2a2a"/>
      <stop offset="35%" stop-color="#555555"/>
      <stop offset="50%" stop-color="#383838"/>
      <stop offset="65%" stop-color="#4e4e4e"/>
      <stop offset="80%" stop-color="#222222"/>
      <stop offset="100%" stop-color="#505050"/>
    </linearGradient>
    <!-- Chrome gradient for main bright elements -->
    <linearGradient id="chromeBright" gradientUnits="objectBoundingBox"
        x1="0" y1="0" x2="0.3" y2="1">
      <stop offset="0%" stop-color="#a0a0a0"/>
      <stop offset="12%" stop-color="#e8e8e8"/>
      <stop offset="22%" stop-color="#ffffff"/>
      <stop offset="30%" stop-color="#b8b8b8"/>
      <stop offset="40%" stop-color="#d0d0d0"/>
      <stop offset="48%" stop-color="#f5f5f5"/>
      <stop offset="55%" stop-color="#909090"/>
      <stop offset="62%" stop-color="#c8c8c8"/>
      <stop offset="70%" stop-color="#e0e0e0"/>
      <stop offset="78%" stop-color="#ffffff"/>
      <stop offset="85%" stop-color="#b0b0b0"/>
      <stop offset="92%" stop-color="#dcdcdc"/>
      <stop offset="100%" stop-color="#a8a8a8"/>
    </linearGradient>
  </defs>
  <rect x="156" y="337" width="727" height="255" fill="#050505"/>
  <g transform="translate(0,1024) scale(0.1,-0.1)" fill="url(#chromeDark)" stroke="none">
    <path d="M3435 6692 c-11 -15 -92 -108 -180 -206 -88 -99 -289 -326 -447 -505
l-286 -326 99 -5 99 -5 -56 -100 c-31 -55 -82 -145 -114 -200 -32 -55 -99
-174 -150 -265 -166 -296 -261 -464 -302 -533 -22 -38 -38 -70 -36 -73 3 -2
60 71 129 163 68 92 201 271 296 398 122 163 198 277 261 390 49 88 195 349
324 580 309 554 391 705 387 709 -2 2 -13 -8 -24 -22z M3433 6163 l-39 -78
-80 -3 -79 -3 -63 -112 c-34 -62 -86 -152 -115 -202 -30 -49 -95 -162 -146
-250 -95 -163 -195 -333 -354 -599 l-89 -150 21 -35 c12 -20 52 -89 89 -153
37 -65 69 -118 72 -118 3 1 64 103 137 228 72 125 221 380 330 567 391 669
473 812 473 823 0 14 -101 162 -111 162 -3 0 -24 -35 -46 -77z M8640 6073
c-104 -110 -94 -83 -100 -285 l-5 -181 -100 114 c-55 63 -131 151 -169 196
-38 46 -79 89 -92 98 -30 19 -93 19 -122 -1 -50 -35 -52 -49 -52 -406 l1 -333
74 77 75 78 0 174 c0 96 4 177 9 180 5 3 84 -84 176 -193 185 -219 214 -243
277 -222 18 6 42 24 53 39 19 25 20 45 23 277 2 138 2 292 0 343 l-3 93 -45
-48z M4423 6068 c-12 -13 -73 -128 -137 -256 -66 -132 -121 -230 -127 -227 -5
4 -50 87 -99 186 -58 115 -96 179 -105 179 -20 0 -98 -39 -107 -54 -4 -6 -8
-21 -8 -33 0 -27 214 -439 245 -472 15 -15 38 -25 66 -28 84 -8 89 -2 278 376
94 187 171 343 171 346 0 3 -35 5 -78 5 -69 0 -81 -3 -99 -22z M1710 6075 c0
-3 100 -177 223 -387 123 -211 256 -440 297 -510 40 -71 76 -128 79 -128 7 0
201 341 201 354 0 4 -46 87 -103 184 -57 97 -144 248 -193 334 l-89 157 -207
1 c-115 0 -208 -2 -208 -5z M4685 6011 c-84 -38 -134 -130 -120 -221 10 -58 9
-110 0 -186 -12 -101 27 -178 110 -215 56 -26 422 -28 460 -3 30 20 61 68 70
112 l7 32 -130 0 c-71 0 -177 3 -236 7 -102 6 -108 8 -119 31 -21 45 5 52 206
52 162 0 181 2 207 20 32 23 60 76 60 114 l0 26 -229 0 c-193 0 -231 2 -241
15 -20 24 2 61 40 69 18 3 101 6 184 6 83 0 156 4 162 8 12 7 105 118 118 140
6 9 -47 12 -251 12 -228 0 -263 -3 -298 -19z M5376 6015 c-48 -17 -90 -57
-116 -110 -18 -36 -20 -62 -20 -206 0 -158 1 -167 26 -217 19 -39 38 -59 72
-80 l47 -27 240 0 240 0 0 80 0 80 -187 -3 c-201 -3 -260 5 -279 39 -6 13 -9
66 -7 140 4 163 -3 158 220 159 l167 0 61 72 c33 39 60 75 60 80 0 4 -109 8
-242 8 -180 -1 -253 -4 -282 -15z M5989 6017 c-19 -14 -119 -134 -119 -142 0
-3 65 -5 145 -5 l145 0 0 -297 1 -298 74 78 75 79 0 219 0 219 89 0 89 0 47
52 c25 28 55 64 66 80 l20 28 -308 0 c-226 -1 -312 -4 -324 -13z M6640 6010
c-19 -19 -20 -33 -20 -352 0 -183 -3 -343 -6 -355 -11 -41 14 -24 85 57 l71
80 0 210 0 211 153 -3 152 -3 3 -28 c6 -51 -8 -57 -144 -57 -79 0 -124 -4
-124 -10 0 -6 33 -52 74 -103 40 -51 101 -134 135 -185 34 -51 68 -95 75 -98
7 -3 52 -4 99 -2 l87 3 -77 119 -77 119 37 31 c91 78 103 239 24 325 -50 54
-84 61 -314 61 -200 0 -214 -1 -233 -20z M7426 6015 c-49 -17 -93 -59 -117
-110 -16 -34 -19 -66 -19 -206 0 -163 1 -168 28 -220 22 -43 38 -59 81 -81 52
-27 58 -28 215 -28 88 0 178 5 200 11 50 14 118 82 134 135 15 52 16 314 1
369 -7 23 -28 57 -53 81 -24 25 -58 46 -81 53 -58 16 -341 13 -389 -4z m355
-172 c19 -19 21 -31 20 -142 -1 -66 -4 -127 -7 -136 -9 -23 -70 -35 -175 -35
-104 0 -154 12 -169 40 -6 10 -10 67 -10 127 0 165 12 174 198 170 108 -3 125
-5 143 -24z M4207 5204 c-4 -4 -7 -18 -7 -31 0 -22 4 -23 60 -23 l60 0 0 -90
0 -90 35 0 35 0 0 90 0 90 56 0 c54 0 55 0 52 28 l-3 27 -141 3 c-77 1 -143
-1 -147 -4z M4641 5199 c-40 -16 -50 -39 -51 -112 0 -59 3 -71 25 -92 23 -24
31 -25 135 -25 l110 0 0 31 0 31 -82 -2 c-113 -3 -118 -2 -118 15 0 12 18 15
101 15 l100 0 -3 28 -3 27 -98 0 c-81 0 -97 2 -95 15 3 12 24 16 101 18 l98 3
-3 27 -3 27 -95 2 c-52 1 -106 -2 -119 -8z M5023 5203 c-12 -2 -34 -18 -48
-34 -20 -25 -25 -41 -25 -86 0 -47 4 -59 29 -84 29 -29 31 -29 140 -29 l111 0
0 30 0 29 -102 3 -103 3 -3 43 c-5 66 6 72 115 72 l94 0 -3 28 -3 27 -90 1
c-49 1 -100 0 -112 -3z M5320 5091 l0 -121 29 0 c28 0 30 3 33 43 l3 42 73 3
72 3 0 -46 c0 -45 0 -45 35 -45 l35 0 0 121 0 120 -32 -3 c-31 -3 -33 -6 -38
-48 l-5 -45 -65 0 -65 -1 -5 46 c-5 42 -7 45 -37 48 l-33 3 0 -120z M5707
5192 c-14 -15 -17 -40 -17 -120 l0 -102 35 0 35 0 0 83 1 82 72 -77 c78 -83
103 -100 135 -92 32 9 43 51 40 150 l-3 89 -32 3 -33 3 0 -88 0 -88 -83 88
c-88 93 -117 106 -150 69z M6163 5199 c-47 -14 -65 -46 -64 -120 0 -92 15
-103 137 -107 142 -6 174 15 174 114 0 64 -22 101 -68 113 -45 13 -135 13
-179 0z m165 -61 c7 -7 12 -31 12 -55 0 -38 -3 -45 -27 -54 -26 -10 -131 -4
-143 8 -12 12 -4 94 10 103 22 14 134 12 148 -2z M6502 5111 c4 -134 5 -135
148 -139 l110 -4 0 29 0 29 -77 -2 c-108 -3 -112 -1 -115 99 l-3 82 -33 3 -34
3 4 -100z M6890 5193 c-48 -25 -63 -60 -55 -128 11 -82 31 -95 156 -95 89 0
100 2 126 24 25 22 28 30 28 90 0 57 -3 69 -26 92 -23 23 -36 27 -110 31 -68
3 -91 1 -119 -14z m178 -55 c7 -7 12 -31 12 -55 0 -38 -3 -45 -27 -54 -34 -13
-134 -3 -145 14 -13 21 -9 75 8 91 19 19 134 22 152 4z M7303 5199 c-47 -14
-63 -43 -63 -115 0 -98 13 -108 143 -112 96 -3 107 -2 126 17 16 16 21 34 21
71 0 28 -4 51 -10 51 -5 1 -19 1 -30 1 -85 0 -90 -1 -90 -27 0 -21 5 -25 30
-25 48 0 38 -27 -13 -32 -92 -11 -116 4 -117 69 0 43 24 53 126 53 l94 0 0 30
0 30 -92 -1 c-51 0 -107 -5 -125 -10z M7627 5204 c-4 -4 -7 -58 -7 -121 l0
-113 35 0 36 0 -3 118 -3 117 -25 3 c-14 2 -29 0 -33 -4z M7833 5194 c-40 -20
-54 -64 -46 -135 9 -78 30 -89 164 -89 l109 0 0 25 c0 27 -7 29 -98 25 -58 -2
-102 9 -102 25 0 11 22 15 98 17 92 3 97 4 100 26 4 24 11 23 -121 23 -68 0
-78 3 -75 17 3 14 19 17 101 20 l97 3 0 29 0 30 -97 0 c-69 0 -108 -5 -130
-16z M8200 5203 c-53 -20 -67 -83 -27 -121 18 -17 37 -22 102 -24 63 -2 80 -6
80 -18 0 -12 -19 -16 -102 -18 -102 -3 -103 -3 -103 -27 l0 -25 115 0 c110 0
117 1 140 25 28 27 30 42 13 80 -13 30 -28 34 -123 37 -57 3 -70 6 -73 21 -3
15 7 17 97 17 l101 0 0 30 0 30 -102 -1 c-57 0 -110 -3 -118 -6z"/>
  </g>
  <g transform="translate(0,1024) scale(0.1,-0.1)" fill="url(#chromeBright)" stroke="none">
    <path d="M3250 6478 c-423 -478 -720 -818 -720 -823 0 -3 43 -5 95 -5 52 0 95
-3 95 -6 0 -3 -11 -24 -24 -47 -13 -23 -89 -157 -168 -297 -291 -511 -458
-808 -458 -815 0 -4 44 53 98 126 54 74 129 175 166 224 314 420 331 445 448
655 66 118 233 418 370 665 138 248 264 474 280 503 16 28 28 52 26 52 -2 -1
-95 -105 -208 -232z M3415 6122 c-33 -65 -94 -182 -136 -262 -41 -80 -124
-239 -183 -355 l-108 -210 -260 -261 -261 -262 88 -151 c49 -83 91 -151 94
-151 3 0 40 58 81 128 188 319 278 473 492 842 127 217 262 449 300 514 38 65
67 124 65 130 -6 16 -97 145 -105 150 -4 2 -34 -48 -67 -112z M8607 6033 l-68
-77 2 -171 c0 -101 -3 -170 -9 -170 -5 0 -67 68 -138 150 -196 228 -234 265
-275 265 -51 0 -96 -32 -108 -77 -7 -23 -11 -162 -11 -351 l0 -313 30 21 c17
12 50 46 75 77 l45 55 0 174 c0 104 4 174 10 174 5 0 69 -71 142 -157 200
-238 226 -263 275 -263 51 0 89 29 103 78 12 44 14 662 2 662 -4 0 -38 -35
-75 -77z M4424 6065 c-14 -14 -72 -122 -129 -240 -57 -118 -110 -224 -118
-236 -14 -19 -20 -10 -112 170 -54 105 -103 191 -109 191 -28 -1 -111 -56
-114 -76 -4 -31 226 -472 257 -493 14 -9 44 -16 68 -16 34 0 48 6 72 30 24 25
361 667 361 689 0 3 -34 6 -75 6 -68 0 -79 -3 -101 -25z M1720 6064 c0 -5 201
-352 565 -978 l23 -38 15 23 c8 13 54 94 102 179 84 150 86 156 71 180 -9 14
-95 163 -193 333 l-176 307 -204 0 c-112 0 -203 -3 -203 -6z M4735 6025 c-5
-2 -22 -6 -37 -9 -38 -8 -85 -51 -110 -100 -23 -45 -28 -140 -10 -187 7 -18 6
-40 -4 -80 -17 -62 -11 -126 16 -179 44 -87 84 -99 323 -100 155 0 194 3 215
16 37 22 60 55 71 103 l9 41 -222 0 c-184 0 -225 3 -244 16 -25 18 -29 59 -6
68 9 3 98 6 198 6 l182 0 31 33 c33 33 53 74 53 108 0 18 -9 19 -228 19 -235
0 -252 3 -252 41 0 38 27 44 214 49 l180 5 58 69 c32 38 58 73 58 78 0 7 -472
11 -495 3z M5386 6015 c-59 -21 -88 -46 -118 -105 -27 -50 -28 -58 -28 -204 0
-183 12 -229 72 -280 57 -49 100 -56 337 -56 l211 0 0 80 0 80 -210 0 c-211 0
-211 0 -235 25 -24 23 -25 30 -25 145 0 115 1 122 25 145 24 25 27 25 192 25
l169 0 62 74 c34 41 62 77 62 80 0 3 -107 6 -237 6 -178 -1 -248 -4 -277 -15z
M5955 5978 c-25 -28 -55 -64 -66 -80 l-20 -28 145 0 146 0 0 -290 c0 -162 4
-290 9 -290 5 0 38 34 75 76 l66 75 0 214 0 214 92 3 92 3 58 69 c32 38 58 73
58 78 0 4 -137 8 -304 8 l-304 0 -47 -52z M6646 6008 l-27 -23 3 -351 3 -350
73 79 72 79 0 208 c0 244 -18 220 163 220 104 0 119 -2 137 -20 24 -24 25 -39
6 -65 -12 -17 -30 -19 -137 -22 -68 -2 -123 -6 -122 -11 1 -4 36 -50 76 -102
41 -52 102 -137 136 -187 l62 -93 89 0 c50 0 90 3 90 8 0 4 -33 59 -74 122
l-73 115 43 38 c86 76 98 209 27 305 -46 62 -65 66 -304 70 -214 4 -216 4
-243 -20z M7455 6021 c-76 -20 -130 -68 -154 -140 -15 -46 -14 -312 1 -365 19
-63 83 -121 150 -136 84 -19 343 -9 388 14 96 50 120 111 120 304 0 75 -5 153
-10 173 -16 56 -51 101 -100 129 -42 23 -55 25 -205 27 -88 1 -173 -2 -190 -6z
m316 -164 c31 -24 39 -56 39 -165 0 -102 -2 -111 -25 -136 -24 -26 -26 -26
-158 -26 -121 0 -137 2 -161 21 -26 20 -26 22 -26 145 0 119 1 126 25 149 23
24 29 25 157 25 89 -1 138 -5 149 -13z M5710 5190 c-17 -17 -20 -33 -20 -120
l0 -100 30 0 30 0 0 85 c0 47 3 85 6 85 3 0 29 -26 57 -57 94 -104 104 -113
134 -113 47 0 53 14 53 127 l0 103 -30 0 -29 0 -3 -84 -3 -84 -69 76 c-95 106
-119 119 -156 82z M4210 5175 c0 -24 3 -25 55 -25 l55 0 0 -90 0 -90 30 0 30
0 0 90 0 90 60 0 c57 0 60 1 60 25 l0 25 -145 0 -145 0 0 -25z M4615 5175
c-21 -20 -25 -34 -25 -79 0 -109 27 -128 171 -124 89 3 94 4 97 26 3 21 1 22
-90 22 -88 0 -118 8 -118 32 0 4 45 8 100 8 l100 0 0 25 c0 25 0 25 -94 25
-52 0 -97 4 -100 9 -12 19 24 30 110 33 84 3 89 4 92 26 3 22 2 22 -108 22
-104 0 -112 -1 -135 -25z M4986 5179 c-23 -18 -26 -27 -26 -84 0 -35 3 -71 6
-80 13 -32 59 -45 164 -45 l100 0 0 25 c0 25 0 25 -93 25 -59 0 -97 4 -105 12
-13 13 -16 86 -4 105 5 8 42 13 102 15 90 3 95 4 98 26 3 22 2 22 -106 22 -95
0 -113 -3 -136 -21z M5320 5085 l0 -115 30 0 c29 0 30 2 30 45 l0 45 75 0 75
0 0 -45 c0 -43 1 -45 30 -45 17 0 30 5 30 13 1 6 3 58 7 115 l5 102 -36 0 -36
0 0 -45 0 -45 -75 0 -75 0 0 45 c0 43 -1 45 -30 45 l-30 0 0 -115z M6143 5190
c-12 -5 -26 -18 -32 -29 -12 -21 -15 -119 -5 -146 12 -31 59 -45 153 -45 81 0
93 2 118 24 26 22 28 30 28 91 0 61 -3 69 -28 91 -25 22 -37 24 -120 23 -51 0
-102 -4 -114 -9z m198 -67 c6 -16 7 -41 2 -63 l-9 -35 -67 -3 c-89 -4 -107 7
-107 61 0 24 5 48 12 55 7 7 42 12 85 12 71 0 74 -1 84 -27z M6500 5114 c0
-81 1 -87 29 -115 29 -28 32 -29 130 -29 l101 0 0 25 c0 25 -1 25 -83 25 -51
0 -88 5 -95 12 -7 7 -12 43 -12 90 l0 78 -35 0 -35 0 0 -86z M6865 5175 c-21
-21 -25 -33 -25 -88 0 -97 15 -111 124 -116 149 -6 176 12 176 114 0 57 -3 69
-25 90 -22 23 -31 25 -125 25 -94 0 -103 -2 -125 -25z m213 -78 c4 -66 -8 -77
-80 -77 -82 0 -98 10 -98 63 0 61 12 68 100 65 l75 -3 3 -48z M7269 5171 c-26
-26 -29 -36 -29 -89 0 -55 3 -63 31 -86 28 -24 39 -26 118 -26 114 0 131 11
131 86 l0 54 -60 0 c-57 0 -60 -1 -60 -25 0 -21 5 -25 31 -25 24 0 30 -4 27
-17 -5 -26 -118 -31 -142 -8 -19 19 -21 86 -4 103 8 8 47 12 110 12 98 0 98 0
98 25 l0 25 -111 0 c-109 0 -111 0 -140 -29z M7626 5087 l0 -112 32 -3 32 -3
0 115 0 116 -32 0 -33 0 1 -113z M7815 5175 c-21 -21 -25 -33 -25 -88 0 -102
12 -111 148 -115 95 -3 110 -1 116 13 11 30 -3 35 -93 35 -81 0 -111 9 -111
32 0 4 45 8 100 8 l100 0 0 25 c0 25 0 25 -93 25 -98 0 -109 3 -100 26 4 11
28 14 98 14 93 0 105 5 105 41 0 5 -50 9 -110 9 -104 0 -112 -1 -135 -25z
M8170 5180 c-25 -25 -26 -61 -1 -91 17 -21 30 -25 103 -29 65 -4 83 -8 83 -20
0 -12 -19 -16 -102 -18 -102 -3 -103 -3 -103 -27 l0 -25 114 0 c131 0 159 12
159 69 0 52 -22 65 -121 71 -68 4 -87 8 -87 20 0 12 19 16 103 18 101 3 102 3
102 27 l0 25 -115 0 c-102 0 -117 -2 -135 -20z"/>
  </g>
</svg>